<mxfile host="app.diagrams.net" agent="Mozilla/5.0 (Windows NT 10.0; Win64; x64) AppleWebKit/537.36 (KHTML, like Gecko) Chrome/141.0.0.0 Safari/537.36" version="28.2.7">
  <diagram name="Page-1" id="xXq7N9FgoPv7Lfjpy72N">
    <mxGraphModel dx="1737" dy="935" grid="1" gridSize="10" guides="1" tooltips="1" connect="1" arrows="1" fold="1" page="1" pageScale="1" pageWidth="850" pageHeight="1100" math="0" shadow="0">
      <root>
        <mxCell id="0" />
        <mxCell id="1" parent="0" />
        <mxCell id="Mfa3OT10XW4TITf0ZkE5-1" value="gold.dim_customers" style="shape=table;startSize=40;container=1;collapsible=0;childLayout=tableLayout;fixedRows=1;rowLines=0;fontStyle=0;strokeColor=#d6b656;fontSize=15;spacing=0;spacingTop=0;strokeWidth=1;perimeterSpacing=1;spacingBottom=0;fillColor=#fff2cc;textOpacity=90;rounded=1;" vertex="1" parent="1">
          <mxGeometry x="810" y="48.5" width="205" height="611" as="geometry" />
        </mxCell>
        <mxCell id="Mfa3OT10XW4TITf0ZkE5-2" value="" style="shape=tableRow;horizontal=0;startSize=0;swimlaneHead=0;swimlaneBody=0;top=0;left=0;bottom=0;right=0;collapsible=0;dropTarget=0;fillColor=none;points=[[0,0.5],[1,0.5]];portConstraint=eastwest;strokeColor=inherit;fontSize=15;spacing=0;spacingTop=0;strokeWidth=1;perimeterSpacing=1;spacingBottom=0;textOpacity=90;" vertex="1" parent="Mfa3OT10XW4TITf0ZkE5-1">
          <mxGeometry y="40" width="205" height="57" as="geometry" />
        </mxCell>
        <mxCell id="Mfa3OT10XW4TITf0ZkE5-3" value="PK" style="shape=partialRectangle;html=1;whiteSpace=wrap;connectable=0;fillColor=none;top=0;left=0;bottom=0;right=0;overflow=hidden;pointerEvents=1;strokeColor=inherit;fontSize=15;spacing=0;spacingTop=0;strokeWidth=1;perimeterSpacing=1;spacingBottom=0;textOpacity=90;" vertex="1" parent="Mfa3OT10XW4TITf0ZkE5-2">
          <mxGeometry width="47" height="57" as="geometry">
            <mxRectangle width="47" height="57" as="alternateBounds" />
          </mxGeometry>
        </mxCell>
        <mxCell id="Mfa3OT10XW4TITf0ZkE5-4" value="&lt;b&gt;customer_key&lt;/b&gt;" style="shape=partialRectangle;html=1;whiteSpace=wrap;connectable=0;fillColor=none;top=0;left=0;bottom=0;right=0;align=left;spacingLeft=6;overflow=hidden;strokeColor=inherit;fontSize=15;spacing=0;spacingTop=0;strokeWidth=1;perimeterSpacing=1;spacingBottom=0;textOpacity=90;" vertex="1" parent="Mfa3OT10XW4TITf0ZkE5-2">
          <mxGeometry x="47" width="158" height="57" as="geometry">
            <mxRectangle width="158" height="57" as="alternateBounds" />
          </mxGeometry>
        </mxCell>
        <mxCell id="Mfa3OT10XW4TITf0ZkE5-5" value="" style="shape=tableRow;horizontal=0;startSize=0;swimlaneHead=0;swimlaneBody=0;top=0;left=0;bottom=0;right=0;collapsible=0;dropTarget=0;fillColor=none;points=[[0,0.5],[1,0.5]];portConstraint=eastwest;strokeColor=inherit;fontSize=15;spacing=0;spacingTop=0;strokeWidth=1;perimeterSpacing=1;spacingBottom=0;textOpacity=90;" vertex="1" parent="Mfa3OT10XW4TITf0ZkE5-1">
          <mxGeometry y="97" width="205" height="63" as="geometry" />
        </mxCell>
        <mxCell id="Mfa3OT10XW4TITf0ZkE5-6" value="" style="shape=partialRectangle;html=1;whiteSpace=wrap;connectable=0;fillColor=none;top=0;left=0;bottom=0;right=0;overflow=hidden;strokeColor=inherit;fontSize=15;spacing=0;spacingTop=0;strokeWidth=1;perimeterSpacing=1;spacingBottom=0;textOpacity=90;" vertex="1" parent="Mfa3OT10XW4TITf0ZkE5-5">
          <mxGeometry width="47" height="63" as="geometry">
            <mxRectangle width="47" height="63" as="alternateBounds" />
          </mxGeometry>
        </mxCell>
        <mxCell id="Mfa3OT10XW4TITf0ZkE5-7" value="customer_id" style="shape=partialRectangle;html=1;whiteSpace=wrap;connectable=0;fillColor=none;top=0;left=0;bottom=0;right=0;align=left;spacingLeft=6;overflow=hidden;strokeColor=inherit;fontSize=15;spacing=0;spacingTop=0;strokeWidth=1;perimeterSpacing=1;spacingBottom=0;textOpacity=90;" vertex="1" parent="Mfa3OT10XW4TITf0ZkE5-5">
          <mxGeometry x="47" width="158" height="63" as="geometry">
            <mxRectangle width="158" height="63" as="alternateBounds" />
          </mxGeometry>
        </mxCell>
        <mxCell id="Mfa3OT10XW4TITf0ZkE5-8" value="" style="shape=tableRow;horizontal=0;startSize=0;swimlaneHead=0;swimlaneBody=0;top=0;left=0;bottom=0;right=0;collapsible=0;dropTarget=0;fillColor=none;points=[[0,0.5],[1,0.5]];portConstraint=eastwest;strokeColor=inherit;fontSize=15;spacing=0;spacingTop=0;strokeWidth=1;perimeterSpacing=1;spacingBottom=0;textOpacity=90;" vertex="1" parent="Mfa3OT10XW4TITf0ZkE5-1">
          <mxGeometry y="160" width="205" height="57" as="geometry" />
        </mxCell>
        <mxCell id="Mfa3OT10XW4TITf0ZkE5-9" value="" style="shape=partialRectangle;html=1;whiteSpace=wrap;connectable=0;fillColor=none;top=0;left=0;bottom=0;right=0;overflow=hidden;strokeColor=inherit;fontSize=15;spacing=0;spacingTop=0;strokeWidth=1;perimeterSpacing=1;spacingBottom=0;textOpacity=90;" vertex="1" parent="Mfa3OT10XW4TITf0ZkE5-8">
          <mxGeometry width="47" height="57" as="geometry">
            <mxRectangle width="47" height="57" as="alternateBounds" />
          </mxGeometry>
        </mxCell>
        <mxCell id="Mfa3OT10XW4TITf0ZkE5-10" value="customer_name" style="shape=partialRectangle;html=1;whiteSpace=wrap;connectable=0;fillColor=none;top=0;left=0;bottom=0;right=0;align=left;spacingLeft=6;overflow=hidden;strokeColor=inherit;fontSize=15;spacing=0;spacingTop=0;strokeWidth=1;perimeterSpacing=1;spacingBottom=0;textOpacity=90;" vertex="1" parent="Mfa3OT10XW4TITf0ZkE5-8">
          <mxGeometry x="47" width="158" height="57" as="geometry">
            <mxRectangle width="158" height="57" as="alternateBounds" />
          </mxGeometry>
        </mxCell>
        <mxCell id="Mfa3OT10XW4TITf0ZkE5-41" value="" style="shape=tableRow;horizontal=0;startSize=0;swimlaneHead=0;swimlaneBody=0;top=0;left=0;bottom=0;right=0;collapsible=0;dropTarget=0;fillColor=none;points=[[0,0.5],[1,0.5]];portConstraint=eastwest;strokeColor=inherit;fontSize=15;spacing=0;spacingTop=0;strokeWidth=1;perimeterSpacing=1;spacingBottom=0;textOpacity=90;" vertex="1" parent="Mfa3OT10XW4TITf0ZkE5-1">
          <mxGeometry y="217" width="205" height="57" as="geometry" />
        </mxCell>
        <mxCell id="Mfa3OT10XW4TITf0ZkE5-42" value="" style="shape=partialRectangle;html=1;whiteSpace=wrap;connectable=0;fillColor=none;top=0;left=0;bottom=0;right=0;overflow=hidden;strokeColor=inherit;fontSize=15;spacing=0;spacingTop=0;strokeWidth=1;perimeterSpacing=1;spacingBottom=0;textOpacity=90;" vertex="1" parent="Mfa3OT10XW4TITf0ZkE5-41">
          <mxGeometry width="47" height="57" as="geometry">
            <mxRectangle width="47" height="57" as="alternateBounds" />
          </mxGeometry>
        </mxCell>
        <mxCell id="Mfa3OT10XW4TITf0ZkE5-43" value="first_name" style="shape=partialRectangle;html=1;whiteSpace=wrap;connectable=0;fillColor=none;top=0;left=0;bottom=0;right=0;align=left;spacingLeft=6;overflow=hidden;strokeColor=inherit;fontSize=15;spacing=0;spacingTop=0;strokeWidth=1;perimeterSpacing=1;spacingBottom=0;textOpacity=90;" vertex="1" parent="Mfa3OT10XW4TITf0ZkE5-41">
          <mxGeometry x="47" width="158" height="57" as="geometry">
            <mxRectangle width="158" height="57" as="alternateBounds" />
          </mxGeometry>
        </mxCell>
        <mxCell id="Mfa3OT10XW4TITf0ZkE5-44" value="" style="shape=tableRow;horizontal=0;startSize=0;swimlaneHead=0;swimlaneBody=0;top=0;left=0;bottom=0;right=0;collapsible=0;dropTarget=0;fillColor=none;points=[[0,0.5],[1,0.5]];portConstraint=eastwest;strokeColor=inherit;fontSize=15;spacing=0;spacingTop=0;strokeWidth=1;perimeterSpacing=1;spacingBottom=0;textOpacity=90;" vertex="1" parent="Mfa3OT10XW4TITf0ZkE5-1">
          <mxGeometry y="274" width="205" height="57" as="geometry" />
        </mxCell>
        <mxCell id="Mfa3OT10XW4TITf0ZkE5-45" value="" style="shape=partialRectangle;html=1;whiteSpace=wrap;connectable=0;fillColor=none;top=0;left=0;bottom=0;right=0;overflow=hidden;strokeColor=inherit;fontSize=15;spacing=0;spacingTop=0;strokeWidth=1;perimeterSpacing=1;spacingBottom=0;textOpacity=90;" vertex="1" parent="Mfa3OT10XW4TITf0ZkE5-44">
          <mxGeometry width="47" height="57" as="geometry">
            <mxRectangle width="47" height="57" as="alternateBounds" />
          </mxGeometry>
        </mxCell>
        <mxCell id="Mfa3OT10XW4TITf0ZkE5-46" value="last_name" style="shape=partialRectangle;html=1;whiteSpace=wrap;connectable=0;fillColor=none;top=0;left=0;bottom=0;right=0;align=left;spacingLeft=6;overflow=hidden;strokeColor=inherit;fontSize=15;spacing=0;spacingTop=0;strokeWidth=1;perimeterSpacing=1;spacingBottom=0;textOpacity=90;" vertex="1" parent="Mfa3OT10XW4TITf0ZkE5-44">
          <mxGeometry x="47" width="158" height="57" as="geometry">
            <mxRectangle width="158" height="57" as="alternateBounds" />
          </mxGeometry>
        </mxCell>
        <mxCell id="Mfa3OT10XW4TITf0ZkE5-47" value="" style="shape=tableRow;horizontal=0;startSize=0;swimlaneHead=0;swimlaneBody=0;top=0;left=0;bottom=0;right=0;collapsible=0;dropTarget=0;fillColor=none;points=[[0,0.5],[1,0.5]];portConstraint=eastwest;strokeColor=inherit;fontSize=15;spacing=0;spacingTop=0;strokeWidth=1;perimeterSpacing=1;spacingBottom=0;textOpacity=90;" vertex="1" parent="Mfa3OT10XW4TITf0ZkE5-1">
          <mxGeometry y="331" width="205" height="57" as="geometry" />
        </mxCell>
        <mxCell id="Mfa3OT10XW4TITf0ZkE5-48" value="" style="shape=partialRectangle;html=1;whiteSpace=wrap;connectable=0;fillColor=none;top=0;left=0;bottom=0;right=0;overflow=hidden;strokeColor=inherit;fontSize=15;spacing=0;spacingTop=0;strokeWidth=1;perimeterSpacing=1;spacingBottom=0;textOpacity=90;" vertex="1" parent="Mfa3OT10XW4TITf0ZkE5-47">
          <mxGeometry width="47" height="57" as="geometry">
            <mxRectangle width="47" height="57" as="alternateBounds" />
          </mxGeometry>
        </mxCell>
        <mxCell id="Mfa3OT10XW4TITf0ZkE5-49" value="country" style="shape=partialRectangle;html=1;whiteSpace=wrap;connectable=0;fillColor=none;top=0;left=0;bottom=0;right=0;align=left;spacingLeft=6;overflow=hidden;strokeColor=inherit;fontSize=15;spacing=0;spacingTop=0;strokeWidth=1;perimeterSpacing=1;spacingBottom=0;textOpacity=90;" vertex="1" parent="Mfa3OT10XW4TITf0ZkE5-47">
          <mxGeometry x="47" width="158" height="57" as="geometry">
            <mxRectangle width="158" height="57" as="alternateBounds" />
          </mxGeometry>
        </mxCell>
        <mxCell id="Mfa3OT10XW4TITf0ZkE5-50" value="" style="shape=tableRow;horizontal=0;startSize=0;swimlaneHead=0;swimlaneBody=0;top=0;left=0;bottom=0;right=0;collapsible=0;dropTarget=0;fillColor=none;points=[[0,0.5],[1,0.5]];portConstraint=eastwest;strokeColor=inherit;fontSize=15;spacing=0;spacingTop=0;strokeWidth=1;perimeterSpacing=1;spacingBottom=0;textOpacity=90;" vertex="1" parent="Mfa3OT10XW4TITf0ZkE5-1">
          <mxGeometry y="388" width="205" height="52" as="geometry" />
        </mxCell>
        <mxCell id="Mfa3OT10XW4TITf0ZkE5-51" value="" style="shape=partialRectangle;html=1;whiteSpace=wrap;connectable=0;fillColor=none;top=0;left=0;bottom=0;right=0;overflow=hidden;strokeColor=inherit;fontSize=15;spacing=0;spacingTop=0;strokeWidth=1;perimeterSpacing=1;spacingBottom=0;textOpacity=90;" vertex="1" parent="Mfa3OT10XW4TITf0ZkE5-50">
          <mxGeometry width="47" height="52" as="geometry">
            <mxRectangle width="47" height="52" as="alternateBounds" />
          </mxGeometry>
        </mxCell>
        <mxCell id="Mfa3OT10XW4TITf0ZkE5-52" value="marital_status" style="shape=partialRectangle;html=1;whiteSpace=wrap;connectable=0;fillColor=none;top=0;left=0;bottom=0;right=0;align=left;spacingLeft=6;overflow=hidden;strokeColor=inherit;fontSize=15;spacing=0;spacingTop=0;strokeWidth=1;perimeterSpacing=1;spacingBottom=0;textOpacity=90;" vertex="1" parent="Mfa3OT10XW4TITf0ZkE5-50">
          <mxGeometry x="47" width="158" height="52" as="geometry">
            <mxRectangle width="158" height="52" as="alternateBounds" />
          </mxGeometry>
        </mxCell>
        <mxCell id="Mfa3OT10XW4TITf0ZkE5-53" value="" style="shape=tableRow;horizontal=0;startSize=0;swimlaneHead=0;swimlaneBody=0;top=0;left=0;bottom=0;right=0;collapsible=0;dropTarget=0;fillColor=none;points=[[0,0.5],[1,0.5]];portConstraint=eastwest;strokeColor=inherit;fontSize=15;spacing=0;spacingTop=0;strokeWidth=1;perimeterSpacing=1;spacingBottom=0;textOpacity=90;" vertex="1" parent="Mfa3OT10XW4TITf0ZkE5-1">
          <mxGeometry y="440" width="205" height="57" as="geometry" />
        </mxCell>
        <mxCell id="Mfa3OT10XW4TITf0ZkE5-54" value="" style="shape=partialRectangle;html=1;whiteSpace=wrap;connectable=0;fillColor=none;top=0;left=0;bottom=0;right=0;overflow=hidden;strokeColor=inherit;fontSize=15;spacing=0;spacingTop=0;strokeWidth=1;perimeterSpacing=1;spacingBottom=0;textOpacity=90;" vertex="1" parent="Mfa3OT10XW4TITf0ZkE5-53">
          <mxGeometry width="47" height="57" as="geometry">
            <mxRectangle width="47" height="57" as="alternateBounds" />
          </mxGeometry>
        </mxCell>
        <mxCell id="Mfa3OT10XW4TITf0ZkE5-55" value="gender" style="shape=partialRectangle;html=1;whiteSpace=wrap;connectable=0;fillColor=none;top=0;left=0;bottom=0;right=0;align=left;spacingLeft=6;overflow=hidden;strokeColor=inherit;fontSize=15;spacing=0;spacingTop=0;strokeWidth=1;perimeterSpacing=1;spacingBottom=0;textOpacity=90;" vertex="1" parent="Mfa3OT10XW4TITf0ZkE5-53">
          <mxGeometry x="47" width="158" height="57" as="geometry">
            <mxRectangle width="158" height="57" as="alternateBounds" />
          </mxGeometry>
        </mxCell>
        <mxCell id="Mfa3OT10XW4TITf0ZkE5-56" value="" style="shape=tableRow;horizontal=0;startSize=0;swimlaneHead=0;swimlaneBody=0;top=0;left=0;bottom=0;right=0;collapsible=0;dropTarget=0;fillColor=none;points=[[0,0.5],[1,0.5]];portConstraint=eastwest;strokeColor=inherit;fontSize=15;spacing=0;spacingTop=0;strokeWidth=1;perimeterSpacing=1;spacingBottom=0;textOpacity=90;" vertex="1" parent="Mfa3OT10XW4TITf0ZkE5-1">
          <mxGeometry y="497" width="205" height="57" as="geometry" />
        </mxCell>
        <mxCell id="Mfa3OT10XW4TITf0ZkE5-57" value="" style="shape=partialRectangle;html=1;whiteSpace=wrap;connectable=0;fillColor=none;top=0;left=0;bottom=0;right=0;overflow=hidden;strokeColor=inherit;fontSize=15;spacing=0;spacingTop=0;strokeWidth=1;perimeterSpacing=1;spacingBottom=0;textOpacity=90;" vertex="1" parent="Mfa3OT10XW4TITf0ZkE5-56">
          <mxGeometry width="47" height="57" as="geometry">
            <mxRectangle width="47" height="57" as="alternateBounds" />
          </mxGeometry>
        </mxCell>
        <mxCell id="Mfa3OT10XW4TITf0ZkE5-58" value="birthdate" style="shape=partialRectangle;html=1;whiteSpace=wrap;connectable=0;fillColor=none;top=0;left=0;bottom=0;right=0;align=left;spacingLeft=6;overflow=hidden;strokeColor=inherit;fontSize=15;spacing=0;spacingTop=0;strokeWidth=1;perimeterSpacing=1;spacingBottom=0;textOpacity=90;" vertex="1" parent="Mfa3OT10XW4TITf0ZkE5-56">
          <mxGeometry x="47" width="158" height="57" as="geometry">
            <mxRectangle width="158" height="57" as="alternateBounds" />
          </mxGeometry>
        </mxCell>
        <mxCell id="Mfa3OT10XW4TITf0ZkE5-59" value="" style="shape=tableRow;horizontal=0;startSize=0;swimlaneHead=0;swimlaneBody=0;top=0;left=0;bottom=0;right=0;collapsible=0;dropTarget=0;fillColor=none;points=[[0,0.5],[1,0.5]];portConstraint=eastwest;strokeColor=inherit;fontSize=15;spacing=0;spacingTop=0;strokeWidth=1;perimeterSpacing=1;spacingBottom=0;textOpacity=90;" vertex="1" parent="Mfa3OT10XW4TITf0ZkE5-1">
          <mxGeometry y="554" width="205" height="57" as="geometry" />
        </mxCell>
        <mxCell id="Mfa3OT10XW4TITf0ZkE5-60" value="" style="shape=partialRectangle;html=1;whiteSpace=wrap;connectable=0;fillColor=none;top=0;left=0;bottom=0;right=0;overflow=hidden;strokeColor=inherit;fontSize=15;spacing=0;spacingTop=0;strokeWidth=1;perimeterSpacing=1;spacingBottom=0;textOpacity=90;" vertex="1" parent="Mfa3OT10XW4TITf0ZkE5-59">
          <mxGeometry width="47" height="57" as="geometry">
            <mxRectangle width="47" height="57" as="alternateBounds" />
          </mxGeometry>
        </mxCell>
        <mxCell id="Mfa3OT10XW4TITf0ZkE5-61" value="create_date" style="shape=partialRectangle;html=1;whiteSpace=wrap;connectable=0;fillColor=none;top=0;left=0;bottom=0;right=0;align=left;spacingLeft=6;overflow=hidden;strokeColor=inherit;fontSize=15;spacing=0;spacingTop=0;strokeWidth=1;perimeterSpacing=1;spacingBottom=0;textOpacity=90;" vertex="1" parent="Mfa3OT10XW4TITf0ZkE5-59">
          <mxGeometry x="47" width="158" height="57" as="geometry">
            <mxRectangle width="158" height="57" as="alternateBounds" />
          </mxGeometry>
        </mxCell>
        <mxCell id="Mfa3OT10XW4TITf0ZkE5-62" value="gold.dim_products" style="shape=table;startSize=40;container=1;collapsible=0;childLayout=tableLayout;fixedRows=1;rowLines=0;fontStyle=0;strokeColor=#d6b656;fontSize=15;spacing=0;spacingTop=0;strokeWidth=1;perimeterSpacing=1;spacingBottom=0;fillColor=#fff2cc;textOpacity=90;rounded=1;" vertex="1" parent="1">
          <mxGeometry x="20" y="20" width="205" height="668" as="geometry" />
        </mxCell>
        <mxCell id="Mfa3OT10XW4TITf0ZkE5-63" value="" style="shape=tableRow;horizontal=0;startSize=0;swimlaneHead=0;swimlaneBody=0;top=0;left=0;bottom=0;right=0;collapsible=0;dropTarget=0;fillColor=none;points=[[0,0.5],[1,0.5]];portConstraint=eastwest;strokeColor=inherit;fontSize=15;spacing=0;spacingTop=0;strokeWidth=1;perimeterSpacing=1;spacingBottom=0;textOpacity=90;" vertex="1" parent="Mfa3OT10XW4TITf0ZkE5-62">
          <mxGeometry y="40" width="205" height="57" as="geometry" />
        </mxCell>
        <mxCell id="Mfa3OT10XW4TITf0ZkE5-64" value="PK" style="shape=partialRectangle;html=1;whiteSpace=wrap;connectable=0;fillColor=none;top=0;left=0;bottom=0;right=0;overflow=hidden;pointerEvents=1;strokeColor=inherit;fontSize=15;spacing=0;spacingTop=0;strokeWidth=1;perimeterSpacing=1;spacingBottom=0;textOpacity=90;" vertex="1" parent="Mfa3OT10XW4TITf0ZkE5-63">
          <mxGeometry width="47" height="57" as="geometry">
            <mxRectangle width="47" height="57" as="alternateBounds" />
          </mxGeometry>
        </mxCell>
        <mxCell id="Mfa3OT10XW4TITf0ZkE5-65" value="&lt;b&gt;product_key&lt;/b&gt;" style="shape=partialRectangle;html=1;whiteSpace=wrap;connectable=0;fillColor=none;top=0;left=0;bottom=0;right=0;align=left;spacingLeft=6;overflow=hidden;strokeColor=inherit;fontSize=15;spacing=0;spacingTop=0;strokeWidth=1;perimeterSpacing=1;spacingBottom=0;textOpacity=90;" vertex="1" parent="Mfa3OT10XW4TITf0ZkE5-63">
          <mxGeometry x="47" width="158" height="57" as="geometry">
            <mxRectangle width="158" height="57" as="alternateBounds" />
          </mxGeometry>
        </mxCell>
        <mxCell id="Mfa3OT10XW4TITf0ZkE5-66" value="" style="shape=tableRow;horizontal=0;startSize=0;swimlaneHead=0;swimlaneBody=0;top=0;left=0;bottom=0;right=0;collapsible=0;dropTarget=0;fillColor=none;points=[[0,0.5],[1,0.5]];portConstraint=eastwest;strokeColor=inherit;fontSize=15;spacing=0;spacingTop=0;strokeWidth=1;perimeterSpacing=1;spacingBottom=0;textOpacity=90;" vertex="1" parent="Mfa3OT10XW4TITf0ZkE5-62">
          <mxGeometry y="97" width="205" height="63" as="geometry" />
        </mxCell>
        <mxCell id="Mfa3OT10XW4TITf0ZkE5-67" value="" style="shape=partialRectangle;html=1;whiteSpace=wrap;connectable=0;fillColor=none;top=0;left=0;bottom=0;right=0;overflow=hidden;strokeColor=inherit;fontSize=15;spacing=0;spacingTop=0;strokeWidth=1;perimeterSpacing=1;spacingBottom=0;textOpacity=90;" vertex="1" parent="Mfa3OT10XW4TITf0ZkE5-66">
          <mxGeometry width="47" height="63" as="geometry">
            <mxRectangle width="47" height="63" as="alternateBounds" />
          </mxGeometry>
        </mxCell>
        <mxCell id="Mfa3OT10XW4TITf0ZkE5-68" value="product_id" style="shape=partialRectangle;html=1;whiteSpace=wrap;connectable=0;fillColor=none;top=0;left=0;bottom=0;right=0;align=left;spacingLeft=6;overflow=hidden;strokeColor=inherit;fontSize=15;spacing=0;spacingTop=0;strokeWidth=1;perimeterSpacing=1;spacingBottom=0;textOpacity=90;" vertex="1" parent="Mfa3OT10XW4TITf0ZkE5-66">
          <mxGeometry x="47" width="158" height="63" as="geometry">
            <mxRectangle width="158" height="63" as="alternateBounds" />
          </mxGeometry>
        </mxCell>
        <mxCell id="Mfa3OT10XW4TITf0ZkE5-69" value="" style="shape=tableRow;horizontal=0;startSize=0;swimlaneHead=0;swimlaneBody=0;top=0;left=0;bottom=0;right=0;collapsible=0;dropTarget=0;fillColor=none;points=[[0,0.5],[1,0.5]];portConstraint=eastwest;strokeColor=inherit;fontSize=15;spacing=0;spacingTop=0;strokeWidth=1;perimeterSpacing=1;spacingBottom=0;textOpacity=90;" vertex="1" parent="Mfa3OT10XW4TITf0ZkE5-62">
          <mxGeometry y="160" width="205" height="57" as="geometry" />
        </mxCell>
        <mxCell id="Mfa3OT10XW4TITf0ZkE5-70" value="" style="shape=partialRectangle;html=1;whiteSpace=wrap;connectable=0;fillColor=none;top=0;left=0;bottom=0;right=0;overflow=hidden;strokeColor=inherit;fontSize=15;spacing=0;spacingTop=0;strokeWidth=1;perimeterSpacing=1;spacingBottom=0;textOpacity=90;" vertex="1" parent="Mfa3OT10XW4TITf0ZkE5-69">
          <mxGeometry width="47" height="57" as="geometry">
            <mxRectangle width="47" height="57" as="alternateBounds" />
          </mxGeometry>
        </mxCell>
        <mxCell id="Mfa3OT10XW4TITf0ZkE5-71" value="product_number" style="shape=partialRectangle;html=1;whiteSpace=wrap;connectable=0;fillColor=none;top=0;left=0;bottom=0;right=0;align=left;spacingLeft=6;overflow=hidden;strokeColor=inherit;fontSize=15;spacing=0;spacingTop=0;strokeWidth=1;perimeterSpacing=1;spacingBottom=0;textOpacity=90;" vertex="1" parent="Mfa3OT10XW4TITf0ZkE5-69">
          <mxGeometry x="47" width="158" height="57" as="geometry">
            <mxRectangle width="158" height="57" as="alternateBounds" />
          </mxGeometry>
        </mxCell>
        <mxCell id="Mfa3OT10XW4TITf0ZkE5-72" value="" style="shape=tableRow;horizontal=0;startSize=0;swimlaneHead=0;swimlaneBody=0;top=0;left=0;bottom=0;right=0;collapsible=0;dropTarget=0;fillColor=none;points=[[0,0.5],[1,0.5]];portConstraint=eastwest;strokeColor=inherit;fontSize=15;spacing=0;spacingTop=0;strokeWidth=1;perimeterSpacing=1;spacingBottom=0;textOpacity=90;" vertex="1" parent="Mfa3OT10XW4TITf0ZkE5-62">
          <mxGeometry y="217" width="205" height="57" as="geometry" />
        </mxCell>
        <mxCell id="Mfa3OT10XW4TITf0ZkE5-73" value="" style="shape=partialRectangle;html=1;whiteSpace=wrap;connectable=0;fillColor=none;top=0;left=0;bottom=0;right=0;overflow=hidden;strokeColor=inherit;fontSize=15;spacing=0;spacingTop=0;strokeWidth=1;perimeterSpacing=1;spacingBottom=0;textOpacity=90;" vertex="1" parent="Mfa3OT10XW4TITf0ZkE5-72">
          <mxGeometry width="47" height="57" as="geometry">
            <mxRectangle width="47" height="57" as="alternateBounds" />
          </mxGeometry>
        </mxCell>
        <mxCell id="Mfa3OT10XW4TITf0ZkE5-74" value="product_name" style="shape=partialRectangle;html=1;whiteSpace=wrap;connectable=0;fillColor=none;top=0;left=0;bottom=0;right=0;align=left;spacingLeft=6;overflow=hidden;strokeColor=inherit;fontSize=15;spacing=0;spacingTop=0;strokeWidth=1;perimeterSpacing=1;spacingBottom=0;textOpacity=90;" vertex="1" parent="Mfa3OT10XW4TITf0ZkE5-72">
          <mxGeometry x="47" width="158" height="57" as="geometry">
            <mxRectangle width="158" height="57" as="alternateBounds" />
          </mxGeometry>
        </mxCell>
        <mxCell id="Mfa3OT10XW4TITf0ZkE5-75" value="" style="shape=tableRow;horizontal=0;startSize=0;swimlaneHead=0;swimlaneBody=0;top=0;left=0;bottom=0;right=0;collapsible=0;dropTarget=0;fillColor=none;points=[[0,0.5],[1,0.5]];portConstraint=eastwest;strokeColor=inherit;fontSize=15;spacing=0;spacingTop=0;strokeWidth=1;perimeterSpacing=1;spacingBottom=0;textOpacity=90;" vertex="1" parent="Mfa3OT10XW4TITf0ZkE5-62">
          <mxGeometry y="274" width="205" height="57" as="geometry" />
        </mxCell>
        <mxCell id="Mfa3OT10XW4TITf0ZkE5-76" value="" style="shape=partialRectangle;html=1;whiteSpace=wrap;connectable=0;fillColor=none;top=0;left=0;bottom=0;right=0;overflow=hidden;strokeColor=inherit;fontSize=15;spacing=0;spacingTop=0;strokeWidth=1;perimeterSpacing=1;spacingBottom=0;textOpacity=90;" vertex="1" parent="Mfa3OT10XW4TITf0ZkE5-75">
          <mxGeometry width="47" height="57" as="geometry">
            <mxRectangle width="47" height="57" as="alternateBounds" />
          </mxGeometry>
        </mxCell>
        <mxCell id="Mfa3OT10XW4TITf0ZkE5-77" value="category_id" style="shape=partialRectangle;html=1;whiteSpace=wrap;connectable=0;fillColor=none;top=0;left=0;bottom=0;right=0;align=left;spacingLeft=6;overflow=hidden;strokeColor=inherit;fontSize=15;spacing=0;spacingTop=0;strokeWidth=1;perimeterSpacing=1;spacingBottom=0;textOpacity=90;" vertex="1" parent="Mfa3OT10XW4TITf0ZkE5-75">
          <mxGeometry x="47" width="158" height="57" as="geometry">
            <mxRectangle width="158" height="57" as="alternateBounds" />
          </mxGeometry>
        </mxCell>
        <mxCell id="Mfa3OT10XW4TITf0ZkE5-78" value="" style="shape=tableRow;horizontal=0;startSize=0;swimlaneHead=0;swimlaneBody=0;top=0;left=0;bottom=0;right=0;collapsible=0;dropTarget=0;fillColor=none;points=[[0,0.5],[1,0.5]];portConstraint=eastwest;strokeColor=inherit;fontSize=15;spacing=0;spacingTop=0;strokeWidth=1;perimeterSpacing=1;spacingBottom=0;textOpacity=90;" vertex="1" parent="Mfa3OT10XW4TITf0ZkE5-62">
          <mxGeometry y="331" width="205" height="57" as="geometry" />
        </mxCell>
        <mxCell id="Mfa3OT10XW4TITf0ZkE5-79" value="" style="shape=partialRectangle;html=1;whiteSpace=wrap;connectable=0;fillColor=none;top=0;left=0;bottom=0;right=0;overflow=hidden;strokeColor=inherit;fontSize=15;spacing=0;spacingTop=0;strokeWidth=1;perimeterSpacing=1;spacingBottom=0;textOpacity=90;" vertex="1" parent="Mfa3OT10XW4TITf0ZkE5-78">
          <mxGeometry width="47" height="57" as="geometry">
            <mxRectangle width="47" height="57" as="alternateBounds" />
          </mxGeometry>
        </mxCell>
        <mxCell id="Mfa3OT10XW4TITf0ZkE5-80" value="category" style="shape=partialRectangle;html=1;whiteSpace=wrap;connectable=0;fillColor=none;top=0;left=0;bottom=0;right=0;align=left;spacingLeft=6;overflow=hidden;strokeColor=inherit;fontSize=15;spacing=0;spacingTop=0;strokeWidth=1;perimeterSpacing=1;spacingBottom=0;textOpacity=90;" vertex="1" parent="Mfa3OT10XW4TITf0ZkE5-78">
          <mxGeometry x="47" width="158" height="57" as="geometry">
            <mxRectangle width="158" height="57" as="alternateBounds" />
          </mxGeometry>
        </mxCell>
        <mxCell id="Mfa3OT10XW4TITf0ZkE5-81" value="" style="shape=tableRow;horizontal=0;startSize=0;swimlaneHead=0;swimlaneBody=0;top=0;left=0;bottom=0;right=0;collapsible=0;dropTarget=0;fillColor=none;points=[[0,0.5],[1,0.5]];portConstraint=eastwest;strokeColor=inherit;fontSize=15;spacing=0;spacingTop=0;strokeWidth=1;perimeterSpacing=1;spacingBottom=0;textOpacity=90;" vertex="1" parent="Mfa3OT10XW4TITf0ZkE5-62">
          <mxGeometry y="388" width="205" height="52" as="geometry" />
        </mxCell>
        <mxCell id="Mfa3OT10XW4TITf0ZkE5-82" value="" style="shape=partialRectangle;html=1;whiteSpace=wrap;connectable=0;fillColor=none;top=0;left=0;bottom=0;right=0;overflow=hidden;strokeColor=inherit;fontSize=15;spacing=0;spacingTop=0;strokeWidth=1;perimeterSpacing=1;spacingBottom=0;textOpacity=90;" vertex="1" parent="Mfa3OT10XW4TITf0ZkE5-81">
          <mxGeometry width="47" height="52" as="geometry">
            <mxRectangle width="47" height="52" as="alternateBounds" />
          </mxGeometry>
        </mxCell>
        <mxCell id="Mfa3OT10XW4TITf0ZkE5-83" value="subcategory" style="shape=partialRectangle;html=1;whiteSpace=wrap;connectable=0;fillColor=none;top=0;left=0;bottom=0;right=0;align=left;spacingLeft=6;overflow=hidden;strokeColor=inherit;fontSize=15;spacing=0;spacingTop=0;strokeWidth=1;perimeterSpacing=1;spacingBottom=0;textOpacity=90;" vertex="1" parent="Mfa3OT10XW4TITf0ZkE5-81">
          <mxGeometry x="47" width="158" height="52" as="geometry">
            <mxRectangle width="158" height="52" as="alternateBounds" />
          </mxGeometry>
        </mxCell>
        <mxCell id="Mfa3OT10XW4TITf0ZkE5-84" value="" style="shape=tableRow;horizontal=0;startSize=0;swimlaneHead=0;swimlaneBody=0;top=0;left=0;bottom=0;right=0;collapsible=0;dropTarget=0;fillColor=none;points=[[0,0.5],[1,0.5]];portConstraint=eastwest;strokeColor=inherit;fontSize=15;spacing=0;spacingTop=0;strokeWidth=1;perimeterSpacing=1;spacingBottom=0;textOpacity=90;" vertex="1" parent="Mfa3OT10XW4TITf0ZkE5-62">
          <mxGeometry y="440" width="205" height="57" as="geometry" />
        </mxCell>
        <mxCell id="Mfa3OT10XW4TITf0ZkE5-85" value="" style="shape=partialRectangle;html=1;whiteSpace=wrap;connectable=0;fillColor=none;top=0;left=0;bottom=0;right=0;overflow=hidden;strokeColor=inherit;fontSize=15;spacing=0;spacingTop=0;strokeWidth=1;perimeterSpacing=1;spacingBottom=0;textOpacity=90;" vertex="1" parent="Mfa3OT10XW4TITf0ZkE5-84">
          <mxGeometry width="47" height="57" as="geometry">
            <mxRectangle width="47" height="57" as="alternateBounds" />
          </mxGeometry>
        </mxCell>
        <mxCell id="Mfa3OT10XW4TITf0ZkE5-86" value="maintenance" style="shape=partialRectangle;html=1;whiteSpace=wrap;connectable=0;fillColor=none;top=0;left=0;bottom=0;right=0;align=left;spacingLeft=6;overflow=hidden;strokeColor=inherit;fontSize=15;spacing=0;spacingTop=0;strokeWidth=1;perimeterSpacing=1;spacingBottom=0;textOpacity=90;" vertex="1" parent="Mfa3OT10XW4TITf0ZkE5-84">
          <mxGeometry x="47" width="158" height="57" as="geometry">
            <mxRectangle width="158" height="57" as="alternateBounds" />
          </mxGeometry>
        </mxCell>
        <mxCell id="Mfa3OT10XW4TITf0ZkE5-87" value="" style="shape=tableRow;horizontal=0;startSize=0;swimlaneHead=0;swimlaneBody=0;top=0;left=0;bottom=0;right=0;collapsible=0;dropTarget=0;fillColor=none;points=[[0,0.5],[1,0.5]];portConstraint=eastwest;strokeColor=inherit;fontSize=15;spacing=0;spacingTop=0;strokeWidth=1;perimeterSpacing=1;spacingBottom=0;textOpacity=90;" vertex="1" parent="Mfa3OT10XW4TITf0ZkE5-62">
          <mxGeometry y="497" width="205" height="57" as="geometry" />
        </mxCell>
        <mxCell id="Mfa3OT10XW4TITf0ZkE5-88" value="" style="shape=partialRectangle;html=1;whiteSpace=wrap;connectable=0;fillColor=none;top=0;left=0;bottom=0;right=0;overflow=hidden;strokeColor=inherit;fontSize=15;spacing=0;spacingTop=0;strokeWidth=1;perimeterSpacing=1;spacingBottom=0;textOpacity=90;" vertex="1" parent="Mfa3OT10XW4TITf0ZkE5-87">
          <mxGeometry width="47" height="57" as="geometry">
            <mxRectangle width="47" height="57" as="alternateBounds" />
          </mxGeometry>
        </mxCell>
        <mxCell id="Mfa3OT10XW4TITf0ZkE5-89" value="cost" style="shape=partialRectangle;html=1;whiteSpace=wrap;connectable=0;fillColor=none;top=0;left=0;bottom=0;right=0;align=left;spacingLeft=6;overflow=hidden;strokeColor=inherit;fontSize=15;spacing=0;spacingTop=0;strokeWidth=1;perimeterSpacing=1;spacingBottom=0;textOpacity=90;" vertex="1" parent="Mfa3OT10XW4TITf0ZkE5-87">
          <mxGeometry x="47" width="158" height="57" as="geometry">
            <mxRectangle width="158" height="57" as="alternateBounds" />
          </mxGeometry>
        </mxCell>
        <mxCell id="Mfa3OT10XW4TITf0ZkE5-90" value="" style="shape=tableRow;horizontal=0;startSize=0;swimlaneHead=0;swimlaneBody=0;top=0;left=0;bottom=0;right=0;collapsible=0;dropTarget=0;fillColor=none;points=[[0,0.5],[1,0.5]];portConstraint=eastwest;strokeColor=inherit;fontSize=15;spacing=0;spacingTop=0;strokeWidth=1;perimeterSpacing=1;spacingBottom=0;textOpacity=90;" vertex="1" parent="Mfa3OT10XW4TITf0ZkE5-62">
          <mxGeometry y="554" width="205" height="57" as="geometry" />
        </mxCell>
        <mxCell id="Mfa3OT10XW4TITf0ZkE5-91" value="" style="shape=partialRectangle;html=1;whiteSpace=wrap;connectable=0;fillColor=none;top=0;left=0;bottom=0;right=0;overflow=hidden;strokeColor=inherit;fontSize=15;spacing=0;spacingTop=0;strokeWidth=1;perimeterSpacing=1;spacingBottom=0;textOpacity=90;" vertex="1" parent="Mfa3OT10XW4TITf0ZkE5-90">
          <mxGeometry width="47" height="57" as="geometry">
            <mxRectangle width="47" height="57" as="alternateBounds" />
          </mxGeometry>
        </mxCell>
        <mxCell id="Mfa3OT10XW4TITf0ZkE5-92" value="product_line" style="shape=partialRectangle;html=1;whiteSpace=wrap;connectable=0;fillColor=none;top=0;left=0;bottom=0;right=0;align=left;spacingLeft=6;overflow=hidden;strokeColor=inherit;fontSize=15;spacing=0;spacingTop=0;strokeWidth=1;perimeterSpacing=1;spacingBottom=0;textOpacity=90;" vertex="1" parent="Mfa3OT10XW4TITf0ZkE5-90">
          <mxGeometry x="47" width="158" height="57" as="geometry">
            <mxRectangle width="158" height="57" as="alternateBounds" />
          </mxGeometry>
        </mxCell>
        <mxCell id="Mfa3OT10XW4TITf0ZkE5-93" value="" style="shape=tableRow;horizontal=0;startSize=0;swimlaneHead=0;swimlaneBody=0;top=0;left=0;bottom=0;right=0;collapsible=0;dropTarget=0;fillColor=none;points=[[0,0.5],[1,0.5]];portConstraint=eastwest;strokeColor=inherit;fontSize=15;spacing=0;spacingTop=0;strokeWidth=1;perimeterSpacing=1;spacingBottom=0;textOpacity=90;" vertex="1" parent="Mfa3OT10XW4TITf0ZkE5-62">
          <mxGeometry y="611" width="205" height="57" as="geometry" />
        </mxCell>
        <mxCell id="Mfa3OT10XW4TITf0ZkE5-94" value="" style="shape=partialRectangle;html=1;whiteSpace=wrap;connectable=0;fillColor=none;top=0;left=0;bottom=0;right=0;overflow=hidden;strokeColor=inherit;fontSize=15;spacing=0;spacingTop=0;strokeWidth=1;perimeterSpacing=1;spacingBottom=0;textOpacity=90;" vertex="1" parent="Mfa3OT10XW4TITf0ZkE5-93">
          <mxGeometry width="47" height="57" as="geometry">
            <mxRectangle width="47" height="57" as="alternateBounds" />
          </mxGeometry>
        </mxCell>
        <mxCell id="Mfa3OT10XW4TITf0ZkE5-95" value="start_date" style="shape=partialRectangle;html=1;whiteSpace=wrap;connectable=0;fillColor=none;top=0;left=0;bottom=0;right=0;align=left;spacingLeft=6;overflow=hidden;strokeColor=inherit;fontSize=15;spacing=0;spacingTop=0;strokeWidth=1;perimeterSpacing=1;spacingBottom=0;textOpacity=90;" vertex="1" parent="Mfa3OT10XW4TITf0ZkE5-93">
          <mxGeometry x="47" width="158" height="57" as="geometry">
            <mxRectangle width="158" height="57" as="alternateBounds" />
          </mxGeometry>
        </mxCell>
        <mxCell id="Mfa3OT10XW4TITf0ZkE5-96" value="gold.fact_sales" style="shape=table;startSize=40;container=1;collapsible=0;childLayout=tableLayout;fixedRows=1;rowLines=0;fontStyle=0;strokeColor=#82b366;fontSize=15;spacing=0;spacingTop=0;strokeWidth=1;perimeterSpacing=1;spacingBottom=0;fillColor=#d5e8d4;textOpacity=90;rounded=1;" vertex="1" parent="1">
          <mxGeometry x="360" y="40" width="205" height="560" as="geometry" />
        </mxCell>
        <mxCell id="Mfa3OT10XW4TITf0ZkE5-97" value="" style="shape=tableRow;horizontal=0;startSize=0;swimlaneHead=0;swimlaneBody=0;top=0;left=0;bottom=0;right=0;collapsible=0;dropTarget=0;fillColor=none;points=[[0,0.5],[1,0.5]];portConstraint=eastwest;strokeColor=inherit;fontSize=15;spacing=0;spacingTop=0;strokeWidth=1;perimeterSpacing=1;spacingBottom=0;textOpacity=90;" vertex="1" parent="Mfa3OT10XW4TITf0ZkE5-96">
          <mxGeometry y="40" width="205" height="57" as="geometry" />
        </mxCell>
        <mxCell id="Mfa3OT10XW4TITf0ZkE5-98" value="" style="shape=partialRectangle;html=1;whiteSpace=wrap;connectable=0;fillColor=none;top=0;left=0;bottom=0;right=0;overflow=hidden;pointerEvents=1;strokeColor=inherit;fontSize=15;spacing=0;spacingTop=0;strokeWidth=1;perimeterSpacing=1;spacingBottom=0;textOpacity=90;" vertex="1" parent="Mfa3OT10XW4TITf0ZkE5-97">
          <mxGeometry width="47" height="57" as="geometry">
            <mxRectangle width="47" height="57" as="alternateBounds" />
          </mxGeometry>
        </mxCell>
        <mxCell id="Mfa3OT10XW4TITf0ZkE5-99" value="order_number" style="shape=partialRectangle;html=1;whiteSpace=wrap;connectable=0;fillColor=none;top=0;left=0;bottom=0;right=0;align=left;spacingLeft=6;overflow=hidden;strokeColor=inherit;fontSize=15;spacing=0;spacingTop=0;strokeWidth=1;perimeterSpacing=1;spacingBottom=0;textOpacity=90;" vertex="1" parent="Mfa3OT10XW4TITf0ZkE5-97">
          <mxGeometry x="47" width="158" height="57" as="geometry">
            <mxRectangle width="158" height="57" as="alternateBounds" />
          </mxGeometry>
        </mxCell>
        <mxCell id="Mfa3OT10XW4TITf0ZkE5-100" value="" style="shape=tableRow;horizontal=0;startSize=0;swimlaneHead=0;swimlaneBody=0;top=0;left=0;bottom=0;right=0;collapsible=0;dropTarget=0;fillColor=none;points=[[0,0.5],[1,0.5]];portConstraint=eastwest;strokeColor=inherit;fontSize=15;spacing=0;spacingTop=0;strokeWidth=1;perimeterSpacing=1;spacingBottom=0;textOpacity=90;" vertex="1" parent="Mfa3OT10XW4TITf0ZkE5-96">
          <mxGeometry y="97" width="205" height="63" as="geometry" />
        </mxCell>
        <mxCell id="Mfa3OT10XW4TITf0ZkE5-101" value="FK1" style="shape=partialRectangle;html=1;whiteSpace=wrap;connectable=0;fillColor=none;top=0;left=0;bottom=0;right=0;overflow=hidden;strokeColor=inherit;fontSize=15;spacing=0;spacingTop=0;strokeWidth=1;perimeterSpacing=1;spacingBottom=0;textOpacity=90;" vertex="1" parent="Mfa3OT10XW4TITf0ZkE5-100">
          <mxGeometry width="47" height="63" as="geometry">
            <mxRectangle width="47" height="63" as="alternateBounds" />
          </mxGeometry>
        </mxCell>
        <mxCell id="Mfa3OT10XW4TITf0ZkE5-102" value="product_key" style="shape=partialRectangle;html=1;whiteSpace=wrap;connectable=0;fillColor=none;top=0;left=0;bottom=0;right=0;align=left;spacingLeft=6;overflow=hidden;strokeColor=inherit;fontSize=15;spacing=0;spacingTop=0;strokeWidth=1;perimeterSpacing=1;spacingBottom=0;textOpacity=90;" vertex="1" parent="Mfa3OT10XW4TITf0ZkE5-100">
          <mxGeometry x="47" width="158" height="63" as="geometry">
            <mxRectangle width="158" height="63" as="alternateBounds" />
          </mxGeometry>
        </mxCell>
        <mxCell id="Mfa3OT10XW4TITf0ZkE5-103" value="" style="shape=tableRow;horizontal=0;startSize=0;swimlaneHead=0;swimlaneBody=0;top=0;left=0;bottom=0;right=0;collapsible=0;dropTarget=0;fillColor=none;points=[[0,0.5],[1,0.5]];portConstraint=eastwest;strokeColor=inherit;fontSize=15;spacing=0;spacingTop=0;strokeWidth=1;perimeterSpacing=1;spacingBottom=0;textOpacity=90;" vertex="1" parent="Mfa3OT10XW4TITf0ZkE5-96">
          <mxGeometry y="160" width="205" height="57" as="geometry" />
        </mxCell>
        <mxCell id="Mfa3OT10XW4TITf0ZkE5-104" value="FK2" style="shape=partialRectangle;html=1;whiteSpace=wrap;connectable=0;fillColor=none;top=0;left=0;bottom=0;right=0;overflow=hidden;strokeColor=inherit;fontSize=15;spacing=0;spacingTop=0;strokeWidth=1;perimeterSpacing=1;spacingBottom=0;textOpacity=90;" vertex="1" parent="Mfa3OT10XW4TITf0ZkE5-103">
          <mxGeometry width="47" height="57" as="geometry">
            <mxRectangle width="47" height="57" as="alternateBounds" />
          </mxGeometry>
        </mxCell>
        <mxCell id="Mfa3OT10XW4TITf0ZkE5-105" value="customer_key" style="shape=partialRectangle;html=1;whiteSpace=wrap;connectable=0;fillColor=none;top=0;left=0;bottom=0;right=0;align=left;spacingLeft=6;overflow=hidden;strokeColor=inherit;fontSize=15;spacing=0;spacingTop=0;strokeWidth=1;perimeterSpacing=1;spacingBottom=0;textOpacity=90;" vertex="1" parent="Mfa3OT10XW4TITf0ZkE5-103">
          <mxGeometry x="47" width="158" height="57" as="geometry">
            <mxRectangle width="158" height="57" as="alternateBounds" />
          </mxGeometry>
        </mxCell>
        <mxCell id="Mfa3OT10XW4TITf0ZkE5-106" value="" style="shape=tableRow;horizontal=0;startSize=0;swimlaneHead=0;swimlaneBody=0;top=0;left=0;bottom=0;right=0;collapsible=0;dropTarget=0;fillColor=none;points=[[0,0.5],[1,0.5]];portConstraint=eastwest;strokeColor=inherit;fontSize=15;spacing=0;spacingTop=0;strokeWidth=1;perimeterSpacing=1;spacingBottom=0;textOpacity=90;" vertex="1" parent="Mfa3OT10XW4TITf0ZkE5-96">
          <mxGeometry y="217" width="205" height="57" as="geometry" />
        </mxCell>
        <mxCell id="Mfa3OT10XW4TITf0ZkE5-107" value="" style="shape=partialRectangle;html=1;whiteSpace=wrap;connectable=0;fillColor=none;top=0;left=0;bottom=0;right=0;overflow=hidden;strokeColor=inherit;fontSize=15;spacing=0;spacingTop=0;strokeWidth=1;perimeterSpacing=1;spacingBottom=0;textOpacity=90;" vertex="1" parent="Mfa3OT10XW4TITf0ZkE5-106">
          <mxGeometry width="47" height="57" as="geometry">
            <mxRectangle width="47" height="57" as="alternateBounds" />
          </mxGeometry>
        </mxCell>
        <mxCell id="Mfa3OT10XW4TITf0ZkE5-108" value="order_date" style="shape=partialRectangle;html=1;whiteSpace=wrap;connectable=0;fillColor=none;top=0;left=0;bottom=0;right=0;align=left;spacingLeft=6;overflow=hidden;strokeColor=inherit;fontSize=15;spacing=0;spacingTop=0;strokeWidth=1;perimeterSpacing=1;spacingBottom=0;textOpacity=90;" vertex="1" parent="Mfa3OT10XW4TITf0ZkE5-106">
          <mxGeometry x="47" width="158" height="57" as="geometry">
            <mxRectangle width="158" height="57" as="alternateBounds" />
          </mxGeometry>
        </mxCell>
        <mxCell id="Mfa3OT10XW4TITf0ZkE5-109" value="" style="shape=tableRow;horizontal=0;startSize=0;swimlaneHead=0;swimlaneBody=0;top=0;left=0;bottom=0;right=0;collapsible=0;dropTarget=0;fillColor=none;points=[[0,0.5],[1,0.5]];portConstraint=eastwest;strokeColor=inherit;fontSize=15;spacing=0;spacingTop=0;strokeWidth=1;perimeterSpacing=1;spacingBottom=0;textOpacity=90;" vertex="1" parent="Mfa3OT10XW4TITf0ZkE5-96">
          <mxGeometry y="274" width="205" height="57" as="geometry" />
        </mxCell>
        <mxCell id="Mfa3OT10XW4TITf0ZkE5-110" value="" style="shape=partialRectangle;html=1;whiteSpace=wrap;connectable=0;fillColor=none;top=0;left=0;bottom=0;right=0;overflow=hidden;strokeColor=inherit;fontSize=15;spacing=0;spacingTop=0;strokeWidth=1;perimeterSpacing=1;spacingBottom=0;textOpacity=90;" vertex="1" parent="Mfa3OT10XW4TITf0ZkE5-109">
          <mxGeometry width="47" height="57" as="geometry">
            <mxRectangle width="47" height="57" as="alternateBounds" />
          </mxGeometry>
        </mxCell>
        <mxCell id="Mfa3OT10XW4TITf0ZkE5-111" value="shipping_date" style="shape=partialRectangle;html=1;whiteSpace=wrap;connectable=0;fillColor=none;top=0;left=0;bottom=0;right=0;align=left;spacingLeft=6;overflow=hidden;strokeColor=inherit;fontSize=15;spacing=0;spacingTop=0;strokeWidth=1;perimeterSpacing=1;spacingBottom=0;textOpacity=90;" vertex="1" parent="Mfa3OT10XW4TITf0ZkE5-109">
          <mxGeometry x="47" width="158" height="57" as="geometry">
            <mxRectangle width="158" height="57" as="alternateBounds" />
          </mxGeometry>
        </mxCell>
        <mxCell id="Mfa3OT10XW4TITf0ZkE5-112" value="" style="shape=tableRow;horizontal=0;startSize=0;swimlaneHead=0;swimlaneBody=0;top=0;left=0;bottom=0;right=0;collapsible=0;dropTarget=0;fillColor=none;points=[[0,0.5],[1,0.5]];portConstraint=eastwest;strokeColor=inherit;fontSize=15;spacing=0;spacingTop=0;strokeWidth=1;perimeterSpacing=1;spacingBottom=0;textOpacity=90;" vertex="1" parent="Mfa3OT10XW4TITf0ZkE5-96">
          <mxGeometry y="331" width="205" height="57" as="geometry" />
        </mxCell>
        <mxCell id="Mfa3OT10XW4TITf0ZkE5-113" value="" style="shape=partialRectangle;html=1;whiteSpace=wrap;connectable=0;fillColor=none;top=0;left=0;bottom=0;right=0;overflow=hidden;strokeColor=inherit;fontSize=15;spacing=0;spacingTop=0;strokeWidth=1;perimeterSpacing=1;spacingBottom=0;textOpacity=90;" vertex="1" parent="Mfa3OT10XW4TITf0ZkE5-112">
          <mxGeometry width="47" height="57" as="geometry">
            <mxRectangle width="47" height="57" as="alternateBounds" />
          </mxGeometry>
        </mxCell>
        <mxCell id="Mfa3OT10XW4TITf0ZkE5-114" value="due_date" style="shape=partialRectangle;html=1;whiteSpace=wrap;connectable=0;fillColor=none;top=0;left=0;bottom=0;right=0;align=left;spacingLeft=6;overflow=hidden;strokeColor=inherit;fontSize=15;spacing=0;spacingTop=0;strokeWidth=1;perimeterSpacing=1;spacingBottom=0;textOpacity=90;" vertex="1" parent="Mfa3OT10XW4TITf0ZkE5-112">
          <mxGeometry x="47" width="158" height="57" as="geometry">
            <mxRectangle width="158" height="57" as="alternateBounds" />
          </mxGeometry>
        </mxCell>
        <mxCell id="Mfa3OT10XW4TITf0ZkE5-115" value="" style="shape=tableRow;horizontal=0;startSize=0;swimlaneHead=0;swimlaneBody=0;top=0;left=0;bottom=0;right=0;collapsible=0;dropTarget=0;fillColor=none;points=[[0,0.5],[1,0.5]];portConstraint=eastwest;strokeColor=inherit;fontSize=15;spacing=0;spacingTop=0;strokeWidth=1;perimeterSpacing=1;spacingBottom=0;textOpacity=90;" vertex="1" parent="Mfa3OT10XW4TITf0ZkE5-96">
          <mxGeometry y="388" width="205" height="52" as="geometry" />
        </mxCell>
        <mxCell id="Mfa3OT10XW4TITf0ZkE5-116" value="" style="shape=partialRectangle;html=1;whiteSpace=wrap;connectable=0;fillColor=none;top=0;left=0;bottom=0;right=0;overflow=hidden;strokeColor=inherit;fontSize=15;spacing=0;spacingTop=0;strokeWidth=1;perimeterSpacing=1;spacingBottom=0;textOpacity=90;" vertex="1" parent="Mfa3OT10XW4TITf0ZkE5-115">
          <mxGeometry width="47" height="52" as="geometry">
            <mxRectangle width="47" height="52" as="alternateBounds" />
          </mxGeometry>
        </mxCell>
        <mxCell id="Mfa3OT10XW4TITf0ZkE5-117" value="sales_amount" style="shape=partialRectangle;html=1;whiteSpace=wrap;connectable=0;fillColor=none;top=0;left=0;bottom=0;right=0;align=left;spacingLeft=6;overflow=hidden;strokeColor=inherit;fontSize=15;spacing=0;spacingTop=0;strokeWidth=1;perimeterSpacing=1;spacingBottom=0;textOpacity=90;" vertex="1" parent="Mfa3OT10XW4TITf0ZkE5-115">
          <mxGeometry x="47" width="158" height="52" as="geometry">
            <mxRectangle width="158" height="52" as="alternateBounds" />
          </mxGeometry>
        </mxCell>
        <mxCell id="Mfa3OT10XW4TITf0ZkE5-118" value="" style="shape=tableRow;horizontal=0;startSize=0;swimlaneHead=0;swimlaneBody=0;top=0;left=0;bottom=0;right=0;collapsible=0;dropTarget=0;fillColor=none;points=[[0,0.5],[1,0.5]];portConstraint=eastwest;strokeColor=inherit;fontSize=15;spacing=0;spacingTop=0;strokeWidth=1;perimeterSpacing=1;spacingBottom=0;textOpacity=90;" vertex="1" parent="Mfa3OT10XW4TITf0ZkE5-96">
          <mxGeometry y="440" width="205" height="57" as="geometry" />
        </mxCell>
        <mxCell id="Mfa3OT10XW4TITf0ZkE5-119" value="" style="shape=partialRectangle;html=1;whiteSpace=wrap;connectable=0;fillColor=none;top=0;left=0;bottom=0;right=0;overflow=hidden;strokeColor=inherit;fontSize=15;spacing=0;spacingTop=0;strokeWidth=1;perimeterSpacing=1;spacingBottom=0;textOpacity=90;" vertex="1" parent="Mfa3OT10XW4TITf0ZkE5-118">
          <mxGeometry width="47" height="57" as="geometry">
            <mxRectangle width="47" height="57" as="alternateBounds" />
          </mxGeometry>
        </mxCell>
        <mxCell id="Mfa3OT10XW4TITf0ZkE5-120" value="quantity" style="shape=partialRectangle;html=1;whiteSpace=wrap;connectable=0;fillColor=none;top=0;left=0;bottom=0;right=0;align=left;spacingLeft=6;overflow=hidden;strokeColor=inherit;fontSize=15;spacing=0;spacingTop=0;strokeWidth=1;perimeterSpacing=1;spacingBottom=0;textOpacity=90;" vertex="1" parent="Mfa3OT10XW4TITf0ZkE5-118">
          <mxGeometry x="47" width="158" height="57" as="geometry">
            <mxRectangle width="158" height="57" as="alternateBounds" />
          </mxGeometry>
        </mxCell>
        <mxCell id="Mfa3OT10XW4TITf0ZkE5-121" value="" style="shape=tableRow;horizontal=0;startSize=0;swimlaneHead=0;swimlaneBody=0;top=0;left=0;bottom=0;right=0;collapsible=0;dropTarget=0;fillColor=none;points=[[0,0.5],[1,0.5]];portConstraint=eastwest;strokeColor=inherit;fontSize=15;spacing=0;spacingTop=0;strokeWidth=1;perimeterSpacing=1;spacingBottom=0;textOpacity=90;" vertex="1" parent="Mfa3OT10XW4TITf0ZkE5-96">
          <mxGeometry y="497" width="205" height="63" as="geometry" />
        </mxCell>
        <mxCell id="Mfa3OT10XW4TITf0ZkE5-122" value="" style="shape=partialRectangle;html=1;whiteSpace=wrap;connectable=0;fillColor=none;top=0;left=0;bottom=0;right=0;overflow=hidden;strokeColor=inherit;fontSize=15;spacing=0;spacingTop=0;strokeWidth=1;perimeterSpacing=1;spacingBottom=0;textOpacity=90;" vertex="1" parent="Mfa3OT10XW4TITf0ZkE5-121">
          <mxGeometry width="47" height="63" as="geometry">
            <mxRectangle width="47" height="63" as="alternateBounds" />
          </mxGeometry>
        </mxCell>
        <mxCell id="Mfa3OT10XW4TITf0ZkE5-123" value="price" style="shape=partialRectangle;html=1;whiteSpace=wrap;connectable=0;fillColor=none;top=0;left=0;bottom=0;right=0;align=left;spacingLeft=6;overflow=hidden;strokeColor=inherit;fontSize=15;spacing=0;spacingTop=0;strokeWidth=1;perimeterSpacing=1;spacingBottom=0;textOpacity=90;" vertex="1" parent="Mfa3OT10XW4TITf0ZkE5-121">
          <mxGeometry x="47" width="158" height="63" as="geometry">
            <mxRectangle width="158" height="63" as="alternateBounds" />
          </mxGeometry>
        </mxCell>
        <mxCell id="Mfa3OT10XW4TITf0ZkE5-127" value="" style="edgeStyle=entityRelationEdgeStyle;fontSize=12;html=1;endArrow=ERzeroToMany;startArrow=ERmandOne;rounded=0;exitX=0;exitY=0.5;exitDx=0;exitDy=0;entryX=1;entryY=0.5;entryDx=0;entryDy=0;" edge="1" parent="1" source="Mfa3OT10XW4TITf0ZkE5-2" target="Mfa3OT10XW4TITf0ZkE5-103">
          <mxGeometry width="100" height="100" relative="1" as="geometry">
            <mxPoint x="260" y="200" as="sourcePoint" />
            <mxPoint x="360" y="100" as="targetPoint" />
            <Array as="points">
              <mxPoint x="350" y="180" />
              <mxPoint x="310" y="130" />
            </Array>
          </mxGeometry>
        </mxCell>
        <mxCell id="Mfa3OT10XW4TITf0ZkE5-129" value="" style="edgeStyle=entityRelationEdgeStyle;fontSize=12;html=1;endArrow=ERzeroToMany;startArrow=ERmandOne;rounded=0;entryX=0;entryY=0.5;entryDx=0;entryDy=0;exitX=1;exitY=0.5;exitDx=0;exitDy=0;" edge="1" parent="1" source="Mfa3OT10XW4TITf0ZkE5-63" target="Mfa3OT10XW4TITf0ZkE5-100">
          <mxGeometry width="100" height="100" relative="1" as="geometry">
            <mxPoint x="1130" y="280" as="sourcePoint" />
            <mxPoint x="876" y="382" as="targetPoint" />
            <Array as="points">
              <mxPoint x="660" y="333" />
              <mxPoint x="620" y="283" />
            </Array>
          </mxGeometry>
        </mxCell>
      </root>
    </mxGraphModel>
  </diagram>
</mxfile>
